<?xml version="1.0" encoding="utf-8"?>
<!-- Generator: Adobe Illustrator 19.2.1, SVG Export Plug-In . SVG Version: 6.00 Build 0)  -->
<svg version="1.1" id="Layer_1" xmlns="http://www.w3.org/2000/svg" xmlns:xlink="http://www.w3.org/1999/xlink" x="0px" y="0px"
	 viewBox="0 0 374.1 182.5" style="enable-background:new 0 0 374.1 182.5;" xml:space="preserve">
<style type="text/css">
	.st0{fill:#FFFFFF;}
</style>
<title>logo-transparent</title>
<path class="st0" d="M97.8,9.7L86.3,0L74.9,9.7H0v172.8h172.7V9.7H97.8z M46.7,150.2H41V51.1h5.7L46.7,150.2L46.7,150.2z
	 M63.7,112.1H58v-61h5.7L63.7,112.1L63.7,112.1z M80.7,150.2H75V51.1h5.7L80.7,150.2L80.7,150.2z M97.7,150.2H92V51.1h5.7
	L97.7,150.2L97.7,150.2z M114.7,150.2H109V51.1h5.7L114.7,150.2L114.7,150.2z M131.7,112.1H126v-61h5.7L131.7,112.1L131.7,112.1z"/>
<polygon class="st0" points="230.6,71.2 230.6,49 230.5,49 220.8,71.2 218.7,71.2 209,49 208.9,49 208.9,71.2 205.3,71.2 
	205.3,44.1 210.6,44.1 219.9,65.5 229.1,44.1 234.4,44.1 234.4,71.2 "/>
<polygon class="st0" points="244.4,71.2 244.4,44.1 259.3,44.1 258.9,47.1 248.3,47.1 248.3,55.9 257.4,55.9 257.4,58.9 248.3,58.9 
	248.3,68.3 259.7,68.3 259.2,71.2 "/>
<polygon class="st0" points="277.6,47.2 277.6,71.2 273.8,71.2 273.8,47.2 266,47.2 266,44.1 285.4,44.1 284.9,47.2 "/>
<path class="st0" d="M308.4,71.2l-3.2-6.5c-0.7-1.6-1.7-3.1-3-4.3c-1.1-0.8-2.5-1.3-3.8-1.2h-1.4v12h-3.8V44.1h7
	c2.3-0.1,4.6,0.6,6.4,1.9c1.6,1.2,2.5,3.2,2.4,5.2c0,1.6-0.6,3.2-1.7,4.4c-1.1,1.3-2.7,2.1-4.4,2.4v0.1c1.2,0.4,2.3,1,3.2,1.9
	c1.2,1.3,2.3,2.7,3,4.3l3.5,6.9L308.4,71.2L308.4,71.2z M298.2,47.1h-1.2v9.2h1.2c1.7,0.1,3.4-0.3,4.9-1.1c1.2-0.8,1.9-2.3,1.7-3.7
	c0.1-1.3-0.5-2.6-1.6-3.4C301.6,47.3,299.9,47,298.2,47.1"/>
<path class="st0" d="M321.8,67.6c-2.4-2.8-3.6-6.3-3.5-10c-0.1-3.7,1.1-7.2,3.6-10c5.2-5.2,13.7-5.3,19-0.1c2.4,2.7,3.7,6.3,3.6,10
	c0.1,3.7-1.1,7.2-3.5,10c-5.2,5.3-13.7,5.4-18.9,0.2C321.9,67.7,321.8,67.6,321.8,67.6 M324.8,49.8c-1.6,1.9-2.5,4.5-2.5,7.9
	c0,3.4,0.8,6,2.5,7.8c3.5,3.7,9.3,3.8,12.9,0.3c0.1-0.1,0.2-0.2,0.3-0.3c1.6-1.9,2.4-4.6,2.4-8.1c0.1-2.8-0.8-5.5-2.6-7.6
	c-1.6-1.8-4-2.9-6.5-2.8C328.8,46.9,326.4,47.9,324.8,49.8"/>
<rect x="205.3" y="91.1" class="st0" width="3.8" height="27.1"/>
<path class="st0" d="M227.7,118.2h-8.3V91.1h8.3c4.4,0,7.8,1.2,10.4,3.6c2.6,2.4,3.9,5.7,3.9,9.8c0,4.3-1.3,7.7-3.8,10.1
	S232.1,118.2,227.7,118.2 M226.9,94.1h-3.7v21.1h3c4,0,6.9-0.9,8.8-2.6c1.9-1.7,2.8-4.3,2.9-7.9c0-3.6-1-6.3-2.9-8.1
	C232.7,94.9,229.8,93.9,226.9,94.1"/>
<polygon class="st0" points="250.9,118.2 250.9,91.1 265.8,91.1 265.4,94.1 254.7,94.1 254.7,102.9 263.9,102.9 263.9,105.9 
	254.7,105.9 254.7,115.3 266.1,115.3 265.7,118.2 "/>
<path class="st0" d="M282.2,91.1h3.2l9.9,27.1h-4l-2.9-8h-9.9l-2.9,8h-3.7L282.2,91.1z M283.7,96L283.7,96l-4,11.2h7.9L283.7,96z"/>
<path class="st0" d="M302.8,113.7c1,0.5,2,0.9,3,1.3c1.1,0.4,2.3,0.5,3.4,0.5c1.1,0,2.2-0.3,3.1-0.9c0.9-0.7,1.3-1.8,1.2-2.9
	c0-1.2-0.6-2.4-1.6-3.1c-1.4-1.1-2.9-2.2-4.5-3c-1.7-0.9-3.2-2.1-4.4-3.5c-1-1.3-1.5-2.8-1.5-4.4c-0.1-1.9,0.8-3.8,2.4-5
	c1.7-1.3,3.8-1.9,6-1.9c1.2,0,2.3,0.1,3.4,0.4c1.1,0.2,2.1,0.6,3.1,1l-1.2,3c-0.8-0.4-1.7-0.7-2.6-0.9c-0.8-0.2-1.7-0.4-2.6-0.4
	c-1.2-0.1-2.4,0.2-3.5,0.9c-0.8,0.6-1.3,1.6-1.2,2.7c0,1.7,1.4,3.3,4.1,4.8c2.2,1.1,4.2,2.4,6,4c1.3,1.3,2,3.1,1.9,5
	c0.1,2-0.8,4-2.3,5.4c-1.7,1.4-3.8,2.2-6,2.1c-1.4,0-2.8-0.1-4.1-0.5c-1.3-0.3-2.5-0.8-3.6-1.4L302.8,113.7z"/>
<path class="st0" d="M212.1,154.6c-0.5-0.1-1-0.2-1.5-0.3l-1.4-0.3v11.3h-3.8v-27.1h6.8c3.2,0,5.6,0.7,7.2,2.1
	c1.7,1.5,2.6,3.7,2.5,5.9c0,2.2-0.8,4.4-2.3,6c-1.5,1.6-3.6,2.5-5.8,2.5C213.1,154.7,212.6,154.6,212.1,154.6 M211.3,141.1h-2.1v10
	c0.6,0.2,1.2,0.4,1.8,0.5c0.5,0.1,1.1,0.1,1.6,0.1c2.6,0.2,4.9-1.8,5.1-4.4c0-0.2,0-0.5,0-0.7c0.1-1.5-0.5-3-1.6-4.1
	C214.7,141.4,213,141,211.3,141.1"/>
<path class="st0" d="M245.2,165.3l-3.2-6.5c-0.7-1.6-1.7-3.1-3-4.3c-1.1-0.8-2.5-1.3-3.8-1.2h-1.4v12h-3.8v-27.1h7
	c2.3-0.1,4.6,0.6,6.4,1.9c1.6,1.2,2.5,3.2,2.4,5.2c0,1.6-0.6,3.2-1.7,4.4c-1.1,1.3-2.7,2.1-4.4,2.4v0.1c1.2,0.4,2.3,1,3.2,1.9
	c1.2,1.3,2.3,2.7,3,4.3l3.5,6.9h-4.1L245.2,165.3z M234.9,141.1h-1.2v9.2h1.2c1.7,0.1,3.4-0.3,4.9-1.1c1.2-0.8,1.9-2.3,1.7-3.7
	c0.1-1.3-0.5-2.6-1.6-3.4C238.4,141.3,236.7,141,234.9,141.1"/>
<path class="st0" d="M258.6,161.7c-2.4-2.8-3.6-6.3-3.5-10c-0.1-3.7,1.1-7.2,3.6-10c5.2-5.2,13.7-5.3,19-0.1c2.4,2.7,3.7,6.3,3.6,10
	c0.1,3.7-1.1,7.2-3.5,10c-5.2,5.3-13.7,5.4-18.9,0.2C258.7,161.7,258.6,161.7,258.6,161.7 M261.5,143.8c-1.6,1.9-2.5,4.5-2.5,7.9
	c0,3.4,0.8,6,2.5,7.8c3.5,3.6,9.3,3.8,12.9,0.3c0.1-0.1,0.2-0.2,0.3-0.3c1.6-1.9,2.4-4.6,2.4-8.1c0.1-2.8-0.8-5.5-2.6-7.6
	c-1.6-1.8-4-2.9-6.5-2.8C265.6,140.8,263.2,141.8,261.5,143.8"/>
<path class="st0" d="M284.2,170.1c2.3-0.3,3.9-1,4.8-2.3c1-1.6,1.5-3.6,1.4-5.5v-24.1h3.8v24.1c0,3.4-0.7,6-2.2,7.7
	c-1.5,1.7-3.8,2.7-6.8,3L284.2,170.1z"/>
<polygon class="st0" points="304.4,165.2 304.4,138.1 319.2,138.1 318.8,141.1 308.2,141.1 308.2,149.9 317.3,149.9 317.3,152.9 
	308.2,152.9 308.2,162.3 319.6,162.3 319.1,165.2 "/>
<path class="st0" d="M346.4,142.6c-0.9-0.5-1.9-0.9-2.9-1.2c-1-0.3-2-0.4-3-0.4c-2.7-0.1-5.3,1-7.1,2.9c-1.9,2.1-2.8,4.8-2.7,7.6
	c-0.1,2.9,0.8,5.7,2.7,7.9c1.8,2,4.3,3.1,7,3c1.3,0,2.5-0.2,3.7-0.6c1.2-0.4,2.4-1,3.5-1.8l1.6,2.7c-1.3,0.9-2.7,1.7-4.2,2.2
	c-1.5,0.5-3.1,0.8-4.8,0.7c-3.7,0.2-7.3-1.2-9.9-3.8c-2.6-2.7-3.9-6.3-3.8-10c-0.1-3.8,1.3-7.4,3.9-10.1c2.6-2.7,6.3-4.1,10-4
	c1.3,0,2.5,0.1,3.8,0.5c1.2,0.3,2.4,0.8,3.5,1.4L346.4,142.6z"/>
<polygon class="st0" points="366.3,141.2 366.3,165.2 362.5,165.2 362.5,141.2 354.7,141.2 354.7,138.1 374.1,138.1 373.6,141.2 "/>
</svg>
